<mxfile host="Electron" modified="2024-10-09T14:49:37.781Z" agent="Mozilla/5.0 (Windows NT 10.0; Win64; x64) AppleWebKit/537.36 (KHTML, like Gecko) draw.io/22.1.2 Chrome/114.0.5735.289 Electron/25.9.4 Safari/537.36" etag="BVCQBCmEh6ik3Q3mf6AN" version="22.1.2" type="device">
  <diagram name="Page-1" id="n_o8GV4FqeWjgc5vabTQ">
    <mxGraphModel dx="1304" dy="804" grid="1" gridSize="10" guides="1" tooltips="1" connect="1" arrows="1" fold="1" page="1" pageScale="1" pageWidth="1920" pageHeight="1200" math="0" shadow="0">
      <root>
        <mxCell id="0" />
        <mxCell id="1" parent="0" />
        <mxCell id="hpgPdckSDgk3Bb9L9XT3-12" style="edgeStyle=orthogonalEdgeStyle;rounded=1;orthogonalLoop=1;jettySize=auto;html=1;entryX=0.5;entryY=0;entryDx=0;entryDy=0;" edge="1" parent="1" source="hpgPdckSDgk3Bb9L9XT3-1" target="hpgPdckSDgk3Bb9L9XT3-2">
          <mxGeometry relative="1" as="geometry" />
        </mxCell>
        <mxCell id="hpgPdckSDgk3Bb9L9XT3-1" value="Upgrade Station" style="rounded=1;whiteSpace=wrap;html=1;" vertex="1" parent="1">
          <mxGeometry x="170" y="30" width="120" height="60" as="geometry" />
        </mxCell>
        <mxCell id="hpgPdckSDgk3Bb9L9XT3-13" style="edgeStyle=orthogonalEdgeStyle;rounded=1;orthogonalLoop=1;jettySize=auto;html=1;entryX=0.5;entryY=0;entryDx=0;entryDy=0;" edge="1" parent="1" source="hpgPdckSDgk3Bb9L9XT3-2" target="hpgPdckSDgk3Bb9L9XT3-3">
          <mxGeometry relative="1" as="geometry" />
        </mxCell>
        <mxCell id="hpgPdckSDgk3Bb9L9XT3-2" value="Get Resources" style="rounded=1;whiteSpace=wrap;html=1;" vertex="1" parent="1">
          <mxGeometry x="310" y="120" width="120" height="60" as="geometry" />
        </mxCell>
        <mxCell id="hpgPdckSDgk3Bb9L9XT3-14" style="edgeStyle=orthogonalEdgeStyle;rounded=1;orthogonalLoop=1;jettySize=auto;html=1;entryX=1;entryY=0.5;entryDx=0;entryDy=0;" edge="1" parent="1" source="hpgPdckSDgk3Bb9L9XT3-3" target="hpgPdckSDgk3Bb9L9XT3-6">
          <mxGeometry relative="1" as="geometry">
            <Array as="points">
              <mxPoint x="370" y="360" />
            </Array>
          </mxGeometry>
        </mxCell>
        <mxCell id="hpgPdckSDgk3Bb9L9XT3-3" value="Trade" style="rounded=1;whiteSpace=wrap;html=1;" vertex="1" parent="1">
          <mxGeometry x="310" y="240" width="120" height="60" as="geometry" />
        </mxCell>
        <mxCell id="hpgPdckSDgk3Bb9L9XT3-16" style="edgeStyle=orthogonalEdgeStyle;rounded=1;orthogonalLoop=1;jettySize=auto;html=1;entryX=0.5;entryY=1;entryDx=0;entryDy=0;" edge="1" parent="1" source="hpgPdckSDgk3Bb9L9XT3-4" target="hpgPdckSDgk3Bb9L9XT3-5">
          <mxGeometry relative="1" as="geometry" />
        </mxCell>
        <mxCell id="hpgPdckSDgk3Bb9L9XT3-4" value="GO TO WAAAAR" style="rounded=1;whiteSpace=wrap;html=1;" vertex="1" parent="1">
          <mxGeometry x="30" y="240" width="120" height="60" as="geometry" />
        </mxCell>
        <mxCell id="hpgPdckSDgk3Bb9L9XT3-17" style="edgeStyle=orthogonalEdgeStyle;rounded=1;orthogonalLoop=1;jettySize=auto;html=1;entryX=0;entryY=0.5;entryDx=0;entryDy=0;" edge="1" parent="1" source="hpgPdckSDgk3Bb9L9XT3-5" target="hpgPdckSDgk3Bb9L9XT3-1">
          <mxGeometry relative="1" as="geometry">
            <Array as="points">
              <mxPoint x="90" y="60" />
            </Array>
          </mxGeometry>
        </mxCell>
        <mxCell id="hpgPdckSDgk3Bb9L9XT3-5" value="Explore" style="rounded=1;whiteSpace=wrap;html=1;" vertex="1" parent="1">
          <mxGeometry x="30" y="120" width="120" height="60" as="geometry" />
        </mxCell>
        <mxCell id="hpgPdckSDgk3Bb9L9XT3-15" style="edgeStyle=orthogonalEdgeStyle;rounded=1;orthogonalLoop=1;jettySize=auto;html=1;entryX=0.5;entryY=1;entryDx=0;entryDy=0;" edge="1" parent="1" source="hpgPdckSDgk3Bb9L9XT3-6" target="hpgPdckSDgk3Bb9L9XT3-4">
          <mxGeometry relative="1" as="geometry" />
        </mxCell>
        <mxCell id="hpgPdckSDgk3Bb9L9XT3-6" value="Diplomacy" style="rounded=1;whiteSpace=wrap;html=1;" vertex="1" parent="1">
          <mxGeometry x="170" y="330" width="120" height="60" as="geometry" />
        </mxCell>
        <mxCell id="hpgPdckSDgk3Bb9L9XT3-21" value="Upgrade Station" style="rounded=1;whiteSpace=wrap;html=1;" vertex="1" parent="1">
          <mxGeometry x="640" y="20" width="120" height="60" as="geometry" />
        </mxCell>
      </root>
    </mxGraphModel>
  </diagram>
</mxfile>
